<svg xmlns="http://www.w3.org/2000/svg" viewBox="0 0 960 220" font-family="'Segoe UI', system-ui, -apple-system, sans-serif" role="img" aria-label="Four phases of launching a containerized shinyelectron app: engine setup, image readiness, run and connect, and cleanup on quit.">
  <defs>
    <filter id="cl-shadow">
      <feDropShadow dx="0" dy="1" stdDeviation="3" flood-opacity="0.07"/>
    </filter>
    <marker id="cl-arrow" viewBox="0 0 10 10" refX="9" refY="5" markerWidth="7" markerHeight="7" orient="auto">
      <path d="M0,0 L10,5 L0,10 z" fill="#94a3b8"/>
    </marker>
    <clipPath id="cl-card-clip"><rect width="207" height="158" rx="10"/></clipPath>
  </defs>

  <!-- Section title -->
  <text x="480" y="22" text-anchor="middle" font-size="12" font-weight="700" fill="#cbd5e1" letter-spacing="1">WHAT HAPPENS WHEN THE USER OPENS THE APP</text>

  <!-- Phase 1: ENGINE -->
  <g transform="translate(21, 44)" filter="url(#cl-shadow)">
    <rect width="207" height="158" rx="10" fill="#1e293b" stroke="#334155" stroke-width="1.5"/>
    <rect width="207" height="3" fill="#3b82f6" clip-path="url(#cl-card-clip)"/>
    <text x="16" y="24" font-size="11" font-weight="700" fill="#3b82f6" letter-spacing="0.5">1. ENGINE</text>
    <text x="16" y="40" font-size="10" fill="#cbd5e1">Steps 1 to 3 · find &amp; pick</text>
    <line x1="16" y1="50" x2="191" y2="50" stroke="#334155" stroke-width="1"/>
    <circle cx="20" cy="72" r="3" fill="#3b82f6"/>
    <text x="32" y="76" font-size="11" fill="#e2e8f0">Electron splash starts.</text>
    <circle cx="20" cy="100" r="3" fill="#3b82f6"/>
    <text x="32" y="104" font-size="11" fill="#e2e8f0">Locate the engine socket.</text>
    <circle cx="20" cy="128" r="3" fill="#3b82f6"/>
    <text x="32" y="132" font-size="11" fill="#e2e8f0">Pick Docker or Podman.</text>
  </g>

  <!-- Arrow 1 -->
  <path d="M 232 123 L 254 123" stroke="#cbd5e1" stroke-width="1.5" fill="none" marker-end="url(#cl-arrow)"/>

  <!-- Phase 2: IMAGE -->
  <g transform="translate(258, 44)" filter="url(#cl-shadow)">
    <rect width="207" height="158" rx="10" fill="#1e293b" stroke="#334155" stroke-width="1.5"/>
    <rect width="207" height="3" fill="#8b5cf6" clip-path="url(#cl-card-clip)"/>
    <text x="16" y="24" font-size="11" font-weight="700" fill="#8b5cf6" letter-spacing="0.5">2. IMAGE</text>
    <text x="16" y="40" font-size="10" fill="#cbd5e1">Step 4 · make available</text>
    <line x1="16" y1="50" x2="191" y2="50" stroke="#334155" stroke-width="1"/>
    <circle cx="20" cy="72" r="3" fill="#8b5cf6"/>
    <text x="32" y="76" font-size="11" fill="#e2e8f0">Pull from registry, OR</text>
    <circle cx="20" cy="100" r="3" fill="#8b5cf6"/>
    <text x="32" y="104" font-size="11" fill="#e2e8f0">build the embedded</text>
    <text x="32" y="118" font-size="11" fill="#e2e8f0">Dockerfile locally.</text>
    <text x="32" y="142" font-size="10" fill="#94a3b8">Cached after first launch.</text>
  </g>

  <!-- Arrow 2 -->
  <path d="M 469 123 L 491 123" stroke="#cbd5e1" stroke-width="1.5" fill="none" marker-end="url(#cl-arrow)"/>

  <!-- Phase 3: RUN -->
  <g transform="translate(495, 44)" filter="url(#cl-shadow)">
    <rect width="207" height="158" rx="10" fill="#1e293b" stroke="#334155" stroke-width="1.5"/>
    <rect width="207" height="3" fill="#10b981" clip-path="url(#cl-card-clip)"/>
    <text x="16" y="24" font-size="11" font-weight="700" fill="#10b981" letter-spacing="0.5">3. RUN</text>
    <text x="16" y="40" font-size="10" fill="#cbd5e1">Steps 5 to 7 · start &amp; connect</text>
    <line x1="16" y1="50" x2="191" y2="50" stroke="#334155" stroke-width="1"/>
    <circle cx="20" cy="72" r="3" fill="#10b981"/>
    <text x="32" y="76" font-size="11" fill="#e2e8f0" font-family="'SF Mono', Menlo, Consolas, monospace">docker run -d</text>
    <circle cx="20" cy="100" r="3" fill="#10b981"/>
    <text x="32" y="104" font-size="11" fill="#e2e8f0">Poll Shiny (up to 120s).</text>
    <circle cx="20" cy="128" r="3" fill="#10b981"/>
    <text x="32" y="132" font-size="11" fill="#e2e8f0">WebView loads URL.</text>
  </g>

  <!-- Arrow 3 -->
  <path d="M 706 123 L 728 123" stroke="#cbd5e1" stroke-width="1.5" fill="none" marker-end="url(#cl-arrow)"/>

  <!-- Phase 4: QUIT -->
  <g transform="translate(732, 44)" filter="url(#cl-shadow)">
    <rect width="207" height="158" rx="10" fill="#1e293b" stroke="#334155" stroke-width="1.5"/>
    <rect width="207" height="3" fill="#f59e0b" clip-path="url(#cl-card-clip)"/>
    <text x="16" y="24" font-size="11" font-weight="700" fill="#f59e0b" letter-spacing="0.5">4. QUIT</text>
    <text x="16" y="40" font-size="10" fill="#cbd5e1">Step 8 · cleanup</text>
    <line x1="16" y1="50" x2="191" y2="50" stroke="#334155" stroke-width="1"/>
    <circle cx="20" cy="72" r="3" fill="#f59e0b"/>
    <text x="32" y="76" font-size="11" fill="#e2e8f0">Stop the container.</text>
    <circle cx="20" cy="100" r="3" fill="#f59e0b"/>
    <text x="32" y="104" font-size="11" fill="#e2e8f0">Remove it.</text>
    <text x="32" y="128" font-size="10" fill="#94a3b8">Image stays cached for</text>
    <text x="32" y="142" font-size="10" fill="#94a3b8">the next launch.</text>
  </g>
</svg>
