<svg xmlns="http://www.w3.org/2000/svg" viewBox="0 0 760 240" font-family="'Segoe UI', system-ui, -apple-system, sans-serif" role="img" aria-label="Auto-download strategy: ships an Electron shell with the app source and a downloader module but no runtime; on first launch it checks a per-user cache directory, downloads a portable runtime, and installs packages; subsequent runs spawn the cached runtime directly from the shared cache">
  <defs>
    <filter id="ad-shadow">
      <feDropShadow dx="0" dy="1" stdDeviation="3" flood-opacity="0.07"/>
    </filter>
    <marker id="ad-arrow" viewBox="0 0 10 10" refX="9" refY="5" markerWidth="7" markerHeight="7" orient="auto">
      <path d="M0,0 L10,5 L0,10 z" fill="#94a3b8"/>
    </marker>
    <clipPath id="ad-card-clip"><rect width="220" height="188" rx="8"/></clipPath>
    <clipPath id="ad-mid-clip"><rect width="188" height="188" rx="8"/></clipPath>
  </defs>

  <!-- Column headers -->
  <text x="130" y="20" text-anchor="middle" font-size="10" font-weight="600" fill="#94a3b8" letter-spacing="1.2">SHIPS</text>
  <text x="380" y="20" text-anchor="middle" font-size="10" font-weight="600" fill="#94a3b8" letter-spacing="1.2">FIRST LAUNCH</text>
  <text x="630" y="20" text-anchor="middle" font-size="10" font-weight="600" fill="#94a3b8" letter-spacing="1.2">RUNNING</text>

  <!-- Column 1: Ships -->
  <g transform="translate(20,34)" filter="url(#ad-shadow)">
    <rect width="220" height="188" rx="8" fill="#1e293b" stroke="#334155" stroke-width="1.5"/>
    <rect width="220" height="3" fill="#10b981" clip-path="url(#ad-card-clip)"/>

    <text x="110" y="24" text-anchor="middle" font-size="11" font-weight="600" fill="#e2e8f0">Electron shell</text>
    <text x="110" y="38" text-anchor="middle" font-size="9" fill="#94a3b8">small, ~5 MB app payload</text>

    <!-- App source -->
    <g transform="translate(16,54)">
      <rect width="188" height="46" rx="4" fill="#0f172a" stroke="#334155" stroke-width="1"/>
      <text x="94" y="18" text-anchor="middle" font-size="10" font-weight="500" fill="#cbd5e1">App source</text>
      <text x="94" y="34" text-anchor="middle" font-size="8" fill="#94a3b8">app.R or app.py</text>
    </g>

    <!-- Downloader module -->
    <g transform="translate(16,108)">
      <rect width="188" height="62" rx="4" fill="#052e16" stroke="#059669" stroke-width="1"/>
      <text x="94" y="18" text-anchor="middle" font-size="10" font-weight="600" fill="#6ee7b7">Downloader module</text>
      <text x="94" y="34" text-anchor="middle" font-size="9" fill="#10b981">runtime-downloader.js</text>
      <text x="94" y="50" text-anchor="middle" font-size="8" fill="#cbd5e1">no runtime embedded</text>
    </g>
  </g>

  <!-- Arrow 1 -->
  <g>
    <path d="M 244 128 L 282 128" stroke="#cbd5e1" stroke-width="1.5" stroke-dasharray="4,3" fill="none" marker-end="url(#ad-arrow)"/>
  </g>

  <!-- Column 2: First launch -->
  <g transform="translate(286,34)" filter="url(#ad-shadow)">
    <rect width="188" height="188" rx="8" fill="#1e293b" stroke="#334155" stroke-width="1.5"/>
    <rect width="188" height="3" fill="#10b981" clip-path="url(#ad-mid-clip)"/>

    <!-- Globe motif -->
    <g transform="translate(82,14)">
      <circle cx="12" cy="12" r="11" fill="#052e16" stroke="#059669" stroke-width="1.5"/>
      <path d="M 1 12 L 23 12 M 12 1 C 6 6 6 18 12 23 M 12 1 C 18 6 18 18 12 23" stroke="#10b981" stroke-width="1" fill="none"/>
    </g>

    <!-- Steps -->
    <g transform="translate(14,46)">
      <rect width="160" height="26" rx="4" fill="#0f172a" stroke="#334155" stroke-width="1"/>
      <text x="10" y="17" font-size="9" font-weight="600" fill="#cbd5e1">1.</text>
      <text x="24" y="17" font-size="9" fill="#cbd5e1">check cache dir</text>
    </g>

    <g transform="translate(14,76)">
      <rect width="160" height="26" rx="4" fill="#052e16" stroke="#059669" stroke-width="1"/>
      <text x="10" y="17" font-size="9" font-weight="600" fill="#6ee7b7">2.</text>
      <text x="24" y="17" font-size="9" fill="#10b981">download portable runtime</text>
    </g>

    <g transform="translate(14,106)">
      <rect width="160" height="26" rx="4" fill="#052e16" stroke="#059669" stroke-width="1"/>
      <text x="10" y="17" font-size="9" font-weight="600" fill="#6ee7b7">3.</text>
      <text x="24" y="17" font-size="9" fill="#10b981">extract, install packages</text>
    </g>

    <!-- Cache location -->
    <g transform="translate(14,142)">
      <rect width="160" height="34" rx="4" fill="#1e293b" stroke="#334155" stroke-width="1" stroke-dasharray="3,2"/>
      <text x="80" y="14" text-anchor="middle" font-size="8" font-weight="500" fill="#cbd5e1">Cache path</text>
      <text x="80" y="26" text-anchor="middle" font-size="7" fill="#94a3b8">~/.shinyelectron/runtimes/</text>
    </g>
  </g>

  <!-- Arrow 2 -->
  <g>
    <path d="M 478 128 L 516 128" stroke="#cbd5e1" stroke-width="1.5" stroke-dasharray="4,3" fill="none" marker-end="url(#ad-arrow)"/>
  </g>

  <!-- Column 3: Running -->
  <g transform="translate(520,34)" filter="url(#ad-shadow)">
    <rect width="220" height="188" rx="8" fill="#1e293b" stroke="#334155" stroke-width="1.5"/>
    <rect width="220" height="3" fill="#10b981" clip-path="url(#ad-card-clip)"/>

    <text x="110" y="22" text-anchor="middle" font-size="10" font-weight="600" fill="#e2e8f0">Electron window</text>

    <!-- Window chrome / browser tile -->
    <g transform="translate(16,32)">
      <rect width="188" height="50" rx="4" fill="#1e293b" stroke="#334155" stroke-width="1"/>
      <rect width="188" height="14" rx="4" fill="#0f172a"/>
      <circle cx="8" cy="7" r="2" fill="#f87171"/>
      <circle cx="15" cy="7" r="2" fill="#fbbf24"/>
      <circle cx="22" cy="7" r="2" fill="#34d399"/>
      <text x="94" y="10" text-anchor="middle" font-size="7" fill="#94a3b8">localhost:port</text>
      <text x="94" y="34" text-anchor="middle" font-size="9" fill="#cbd5e1">Shiny UI</text>
    </g>

    <!-- Arrow -->
    <g transform="translate(110,86)">
      <line x1="0" y1="0" x2="0" y2="10" stroke="#94a3b8" stroke-width="1" stroke-dasharray="3,2"/>
      <polygon points="-3,10 0,15 3,10" fill="#94a3b8"/>
    </g>

    <!-- Cached runtime -->
    <g transform="translate(16,104)">
      <rect width="188" height="66" rx="4" fill="#052e16" stroke="#059669" stroke-width="1"/>
      <text x="94" y="16" text-anchor="middle" font-size="10" font-weight="600" fill="#6ee7b7">Cached Rscript / python3</text>
      <text x="94" y="32" text-anchor="middle" font-size="9" fill="#10b981">spawned from cache dir</text>
      <text x="94" y="48" text-anchor="middle" font-size="8" fill="#cbd5e1">shared across all</text>
      <text x="94" y="58" text-anchor="middle" font-size="8" fill="#cbd5e1">shinyelectron apps</text>
    </g>
  </g>
</svg>
